<svg width="41" height="40" viewBox="0 0 41 40" fill="none" xmlns="http://www.w3.org/2000/svg">
<path d="M20.5 40C31.5457 40 40.5 31.0457 40.5 20C40.5 8.9543 31.5457 0 20.5 0C9.4543 0 0.5 8.9543 0.5 20C0.5 31.0457 9.4543 40 20.5 40Z" fill="#FFF1F0"/>
<path d="M15.485 19.438V12.471H24.537V19.438L27.444 17.823L25.544 16.708V11.965C25.544 11.8324 25.4913 11.7052 25.3976 11.6115C25.3038 11.5177 25.1766 11.465 25.044 11.465H14.982C14.8494 11.465 14.7222 11.5177 14.6285 11.6115C14.5347 11.7052 14.482 11.8324 14.482 11.965V16.706L12.562 17.815L15.485 19.438Z" fill="#F5222D"/>
<path d="M20.255 22.9671C20.1804 23.0087 20.0964 23.0306 20.011 23.0306C19.9255 23.0306 19.8415 23.0087 19.767 22.9671L11.965 18.6331V27.0531C11.965 27.1857 12.0176 27.3128 12.1114 27.4066C12.2052 27.5004 12.3324 27.5531 12.465 27.5531H27.554C27.6866 27.5531 27.8138 27.5004 27.9075 27.4066C28.0013 27.3128 28.054 27.1857 28.054 27.0531V18.6331L20.255 22.9671Z" fill="#F5222D"/>
<path d="M18.5019 18.713L16.6379 16.849C16.5909 16.8025 16.5536 16.7472 16.5281 16.6862C16.5026 16.6251 16.4895 16.5597 16.4895 16.4935C16.4895 16.4274 16.5026 16.362 16.5281 16.3009C16.5536 16.2399 16.5909 16.1845 16.6379 16.138L18.5019 14.274L19.2129 14.985L17.7049 16.494L19.2139 18.003L18.5019 18.713Z" fill="#F5222D"/>
<path d="M21.5219 18.713L20.8109 18.002L22.3199 16.493L20.8079 14.988L21.5189 14.277L23.3829 16.138C23.4299 16.1845 23.4672 16.2399 23.4927 16.3009C23.5181 16.3619 23.5313 16.4274 23.5313 16.4935C23.5313 16.5597 23.5181 16.6251 23.4927 16.6862C23.4672 16.7472 23.4299 16.8025 23.3829 16.849L21.5219 18.713Z" fill="#F5222D"/>
</svg>
