<svg width="145" height="30" viewBox="0 0 145 30" fill="none" xmlns="http://www.w3.org/2000/svg">
<path d="M17.9034 12.089C18.6799 12.62 19.4715 13.1215 20.2072 13.722C21.07 14.5044 21.7315 15.4832 22.136 16.5755C22.5404 17.6678 22.6757 18.8415 22.5305 19.9972C22.3852 21.1528 21.9636 22.2565 21.3014 23.2147C20.6393 24.173 19.7559 24.9576 18.7263 25.5021C16.9273 26.3688 14.9513 26.8048 12.9547 26.7754C8.89602 26.7992 4.83657 26.7754 0.774068 26.7935C0.270658 26.7935 0.0937367 26.6822 0.0965915 26.1426C0.116576 21.4378 0.0962347 16.7329 0.111461 12.028C0.0976936 11.1444 0.434546 10.2913 1.04822 9.6553C1.66189 9.01933 2.50281 8.65231 3.3864 8.63455C4.04492 8.5451 4.71868 8.5822 5.36864 8.44421C8.66095 8.87544 11.8955 9.66818 15.0141 10.8081C15.712 11.0656 16.4078 11.3254 17.1018 11.5874C17.421 11.6516 17.7061 11.8299 17.9034 12.089Z" fill="#00DCC0"/>
<path d="M17.9034 12.0889C15.4681 11.1143 12.9743 10.2924 10.4368 9.62801C8.79615 9.26924 7.16793 8.84958 5.49972 8.63642C5.27799 8.47559 4.92039 8.70211 4.75766 8.37475C4.06392 8.18443 3.36825 7.99408 2.67737 7.79329C1.9422 7.61705 1.28977 7.19423 0.828478 6.59527C0.367187 5.99632 0.124825 5.25742 0.142173 4.50162C0.0831721 3.23501 0.12246 1.96459 0.111041 0.695115C0.111041 0.439127 0.13824 0.270665 0.464648 0.277326C5.33984 0.372489 10.2199 0.0717991 15.0903 0.457208C15.9594 0.531368 16.8121 0.738704 17.6181 1.07196C20.6348 2.2986 21.438 4.94983 21.1068 7.70384C20.9953 8.64861 20.6415 9.54861 20.0803 10.3168C19.5192 11.085 18.7695 11.6954 17.9034 12.0889V12.0889Z" fill="#125EEC"/>
<path d="M75.6879 3.99918C76.68 4.01856 77.656 4.25449 78.5474 4.69042C79.4388 5.12634 80.2244 5.75177 80.8489 6.52293C81.3294 7.15727 81.667 7.88799 81.8386 8.66502C81.9338 9.03996 81.8259 9.18744 81.4395 9.26832C80.6113 9.43274 79.7932 9.6431 78.9884 9.89835C78.5354 10.0468 78.4079 9.89832 78.2347 9.51767C78.0204 9.06217 77.7168 8.6543 77.3421 8.31815C76.9674 7.98199 76.5291 7.72436 76.0531 7.56058C75.5771 7.39679 75.0731 7.33013 74.5709 7.36455C74.0686 7.39896 73.5782 7.53377 73.129 7.76096C72.8335 7.89789 72.5852 8.11953 72.4158 8.39772C72.2463 8.67591 72.1634 8.99814 72.1774 9.32356C72.1827 9.63698 72.2857 9.94088 72.472 10.193C72.6583 10.4451 72.9188 10.6329 73.2168 10.73C75.1201 11.596 77.1746 12.0471 79.0474 12.9692C80.2868 13.4494 81.3233 14.3411 81.9831 15.4948C82.5862 16.7974 82.6567 18.2839 82.1802 19.6379C81.7037 20.9919 80.7176 22.1065 79.4317 22.7443C78.0291 23.5204 76.4291 23.8668 74.8311 23.7404C73.2331 23.614 71.7078 23.0204 70.4447 22.0335C69.7376 21.4781 69.1526 20.7827 68.7268 19.9908C68.3011 19.1989 68.0436 18.3275 67.9703 17.4314C67.9266 17.1145 67.9826 16.9309 68.3509 16.8604C69.3263 16.6701 70.3019 16.4798 71.2592 16.2162C71.696 16.0982 71.7624 16.2676 71.8252 16.614C71.8935 17.0295 71.9987 17.438 72.1393 17.8349C72.9168 19.918 74.1836 20.6374 76.3742 20.2463C76.8168 20.1833 77.2489 20.06 77.6581 19.8799C78.0109 19.7496 78.3147 19.5139 78.5289 19.2047C78.743 18.8955 78.857 18.5279 78.855 18.1518C78.8767 17.7644 78.7849 17.3791 78.5907 17.0432C78.3964 16.7073 78.1083 16.4354 77.7617 16.2609C76.5572 15.6166 75.2815 15.1152 73.9608 14.7668C72.7478 14.404 71.5977 13.8568 70.5511 13.1444C67.9103 11.44 67.9817 7.32896 70.532 5.40001C71.8043 4.4284 73.1994 3.96587 75.6879 3.99918Z" fill="#101419"/>
<path d="M119.352 10.4693C121.18 8.61266 123.202 8.13205 125.448 9.09319C126.321 9.45078 127.062 10.0694 127.57 10.8644C128.078 11.6594 128.328 12.5919 128.286 13.5344C128.341 16.6177 128.293 19.7038 128.307 22.7881C128.307 23.1773 128.206 23.3067 127.809 23.2934C126.989 23.2648 126.166 23.2591 125.347 23.2934C124.901 23.3134 124.82 23.1478 124.822 22.7415C124.839 20.1549 124.831 17.5675 124.83 14.98C124.83 14.7811 124.838 14.5812 124.822 14.3842C124.675 12.6922 123.864 11.8273 122.477 11.8796C120.491 11.9548 119.527 12.8417 119.519 14.6393C119.507 17.3038 119.503 19.9627 119.529 22.6244C119.529 23.124 119.442 23.3257 118.893 23.2905C118.074 23.2401 117.25 23.2572 116.43 23.2905C116.029 23.3048 115.932 23.1659 115.933 22.7804C115.946 18.3776 115.946 13.9747 115.933 9.57185C115.933 9.1912 116.028 9.04369 116.432 9.05892C117.152 9.10007 117.875 9.09818 118.595 9.05323C119.212 9.00279 119.468 9.18169 119.356 9.81452C119.339 10.0324 119.337 10.2512 119.352 10.4693V10.4693Z" fill="#101419"/>
<path d="M103.391 10.4921C104.438 8.99427 105.637 8.3985 107.244 8.76678C107.62 8.85147 107.728 8.99615 107.654 9.37775C107.497 10.1809 107.363 10.9955 107.263 11.8035C107.218 12.1775 107.136 12.2993 106.718 12.2374C104.719 11.9433 103.704 12.7665 103.65 14.8192C103.582 17.4028 103.592 19.9894 103.618 22.574C103.624 23.1764 103.445 23.3353 102.872 23.2972C102.08 23.2487 101.281 23.2715 100.485 23.2915C100.162 23.3 100.062 23.204 100.062 22.8737C100.072 18.3744 100.072 13.8748 100.062 9.37491C100.062 9.0228 100.157 8.89906 100.518 8.91048C101.263 8.93617 102.012 8.95425 102.755 8.91048C103.287 8.87622 103.472 9.04846 103.397 9.5671C103.377 9.87503 103.375 10.1839 103.391 10.4921V10.4921Z" fill="#101419"/>
<path d="M50.0151 16.2504C50.0151 18.3906 50.002 20.5327 50.0258 22.671C50.0306 23.1373 49.938 23.3267 49.4241 23.2972C48.6057 23.2506 47.7817 23.2667 46.9614 23.2972C46.5712 23.3096 46.4554 23.1887 46.4563 22.7938C46.4696 18.389 46.4696 13.9846 46.4563 9.58044C46.4563 9.19979 46.5514 9.05322 46.9549 9.06559C47.8009 9.09129 48.6488 9.097 49.4929 9.06559C49.9297 9.04846 50.0254 9.20454 50.0226 9.61279C50.0055 11.8206 50.0151 14.035 50.0151 16.2504Z" fill="#101419"/>
<path d="M112.816 16.2038C112.816 18.344 112.8 20.4861 112.828 22.6253C112.833 23.1202 112.747 23.3333 112.193 23.2972C111.399 23.2458 110.6 23.2668 109.804 23.2915C109.43 23.3029 109.289 23.2135 109.292 22.8052C109.311 18.3998 109.316 13.9941 109.306 9.58804C109.306 9.156 109.443 9.04374 109.855 9.05896C110.651 9.08942 111.45 9.09513 112.245 9.05896C112.702 9.03708 112.833 9.16552 112.827 9.62992C112.8 11.8225 112.816 14.0131 112.816 16.2038Z" fill="#101419"/>
<path d="M48.2759 6.87875C46.4678 6.87875 46.4679 6.87878 46.4679 5.08115C46.4679 3.59185 46.4679 3.58705 47.9962 3.59371C48.6385 3.59371 49.4685 3.38437 49.8739 3.70221C50.305 4.04194 50.0014 4.90986 50.0128 5.54459C50.0356 6.87687 50.0193 6.87684 48.6537 6.87684L48.2759 6.87875Z" fill="#11151A"/>
<path d="M111.126 3.59192C112.816 3.59192 112.816 3.59192 112.815 5.28962C112.815 6.87884 112.815 6.89311 111.256 6.87313C110.62 6.86456 109.773 7.15862 109.406 6.73896C109.095 6.38305 109.311 5.55797 109.311 4.94037C109.311 3.59286 109.311 3.59285 110.679 3.59285L111.126 3.59192Z" fill="#101419"/>
<path d="M4.75707 8.37469C4.99498 8.48699 5.29215 8.43562 5.4996 8.63642H3.3905C3.80161 8.31762 4.33836 8.65923 4.75707 8.37469Z" fill="#59D4DC"/>
<path d="M41.4831 13.0482C41.9544 12.7265 42.3718 12.3325 42.7201 11.8805C43.1669 11.2306 43.4306 10.4724 43.4835 9.68541C43.5364 8.89845 43.3766 8.11176 43.0207 7.40787C42.677 6.58498 42.11 5.87466 41.3837 5.3572C40.6574 4.83975 39.8008 4.53583 38.9108 4.47975C36.0559 4.23327 33.1914 4.43404 30.3317 4.37694C29.8397 4.36742 29.8387 4.60723 29.8396 4.96694C29.8479 8.02674 29.8498 11.0862 29.8447 14.1454C29.8447 17.006 29.8462 19.8666 29.8494 22.7272C29.8494 22.9603 29.6971 23.2981 30.1872 23.2905C33.2686 23.2135 36.3612 23.5285 39.4312 23.1164C40.5621 22.9762 41.6198 22.482 42.4529 21.7045C43.2859 20.927 43.8517 19.906 44.0694 18.7874C44.5709 16.2171 43.7851 14.468 41.4831 13.0482ZM34.088 7.71908C35.2823 7.73811 36.4781 7.70667 37.6724 7.73522C37.9599 7.71042 38.2496 7.74777 38.5214 7.84477C38.7932 7.94176 39.0408 8.09612 39.2476 8.29735C39.4545 8.49858 39.6158 8.742 39.7202 9.01101C39.8246 9.28002 39.8695 9.56834 39.8526 9.8564C39.8677 10.1435 39.8207 10.4305 39.7146 10.6978C39.6086 10.9651 39.4461 11.2063 39.2384 11.4051C39.0306 11.6038 38.7824 11.7554 38.5107 11.8494C38.239 11.9434 37.9503 11.9778 37.6641 11.95C37.0931 11.9671 36.5223 11.95 35.9513 11.95C35.329 11.95 34.7057 11.93 34.0853 11.9576C33.7046 11.9747 33.5627 11.8795 33.5732 11.4703C33.6017 10.376 33.6036 9.28162 33.5732 8.18629C33.5532 7.76663 33.7293 7.71238 34.088 7.71809V7.71908ZM38.4786 19.7238C37.7383 19.7762 36.9915 19.7334 36.2464 19.7334V19.7723C35.526 19.7723 34.8056 19.7591 34.0862 19.7781C33.7322 19.7876 33.5539 19.7296 33.5644 19.3023C33.5939 17.9871 33.5853 16.671 33.5644 15.3559C33.5644 15.0076 33.651 14.88 34.0174 14.8896C35.482 14.9134 36.9486 14.8753 38.4122 14.92C38.7051 14.918 38.9952 14.9749 39.2658 15.0872C39.5363 15.1994 39.7819 15.3649 39.9874 15.5737C40.1928 15.7825 40.3539 16.0304 40.4618 16.3028C40.5697 16.5751 40.6219 16.8664 40.6151 17.1592C40.6389 18.7684 39.9517 19.6201 38.4786 19.7276V19.7238Z" fill="#101419"/>
<path d="M143.882 9.19033C143.502 8.86583 142.658 9.07518 142.017 9.07138C140.696 9.06281 140.697 9.07142 140.505 10.3238C140.231 10.0451 139.94 9.78228 139.635 9.53674C138.554 8.86557 137.283 8.56816 136.016 8.69024C134.75 8.81232 133.558 9.34714 132.626 10.2124C129.656 12.9988 129.709 17.8683 131.289 20.549C133.297 23.9558 137.89 24.8027 140.43 21.9659C140.43 22.6035 140.43 23.165 140.43 23.7274C140.475 24.1199 140.432 24.5175 140.305 24.8914C140.177 25.2654 139.968 25.6064 139.693 25.89C139.418 26.1736 139.084 26.3927 138.714 26.5315C138.344 26.6702 137.948 26.7253 137.554 26.6927C136.789 26.7205 136.033 26.5138 135.388 26.1002C134.743 25.6866 134.24 25.0858 133.946 24.3783C133.464 24.7019 133.031 24.9902 132.599 25.2824C131.157 26.2588 131.143 26.411 132.365 27.7128C132.399 27.749 132.437 27.7823 132.472 27.8175C133.179 28.4836 134.016 28.996 134.931 29.3224C135.846 29.6489 136.818 29.7822 137.787 29.7141C138.61 29.7405 139.429 29.598 140.194 29.2957C140.96 28.9933 141.656 28.5374 142.238 27.9559C142.82 27.3745 143.278 26.68 143.581 25.9151C143.885 25.1502 144.029 24.3312 144.004 23.5085C144.004 19.3544 144.003 15.1989 144 11.0422C143.999 10.4047 144.283 9.53387 143.882 9.19033ZM140.463 14.9239C140.446 15.3455 140.463 15.7689 140.463 16.1914C140.463 16.614 140.467 17.0365 140.463 17.459C140.513 18.0712 140.361 18.6831 140.031 19.2008C139.7 19.7186 139.209 20.1136 138.632 20.3253C138.034 20.5791 137.374 20.6513 136.735 20.5329C136.095 20.4145 135.505 20.1106 135.037 19.6592C133.334 18.11 133.343 13.9009 135.235 12.5077C135.72 12.113 136.305 11.8625 136.926 11.7849C137.546 11.7073 138.175 11.8058 138.742 12.069C139.301 12.2922 139.771 12.6919 140.082 13.2073C140.393 13.7227 140.526 14.3255 140.463 14.9239V14.9239Z" fill="#101419"/>
<path d="M65.8975 9.49485C65.8975 9.09707 65.7265 9.05329 65.4058 9.06376C64.8587 9.08184 64.3114 9.06852 63.7633 9.06852C62.5852 9.06852 62.5859 9.06851 62.5212 10.239C62.5212 10.2657 62.4538 10.2885 62.4148 10.3152C62.1399 10.0324 61.8485 9.76609 61.5422 9.51768C59.539 8.06645 56.2958 8.49375 54.4277 10.3371C51.6813 13.0482 51.5802 17.6998 53.1904 20.5014C55.2402 24.0614 59.8987 24.7409 62.3767 21.9288C62.3767 22.7558 62.4035 23.4238 62.3711 24.0881C62.3771 24.6547 62.1894 25.2064 61.8391 25.6518C61.4889 26.0972 60.9967 26.4097 60.4447 26.5375C59.7889 26.7487 59.087 26.77 58.4197 26.5989C57.7523 26.4278 57.1468 26.0713 56.6735 25.5707C56.3318 25.2262 56.2309 24.4897 55.7618 24.5239C55.3079 24.5591 54.8872 25.0425 54.4561 25.3356C53.0182 26.3111 53.0042 26.4776 54.2261 27.748C54.2603 27.7842 54.2963 27.8175 54.3325 27.8527C55.1112 28.5731 56.04 29.1121 57.0517 29.4312C58.0634 29.7502 59.1329 29.8413 60.184 29.6979C61.6822 29.651 63.1056 29.0313 64.1606 27.9664C65.2155 26.9015 65.8218 25.4725 65.8547 23.9739C65.9508 19.1491 65.8822 14.3215 65.8975 9.49485ZM62.4097 16.123H62.4004C62.4004 16.6445 62.4291 17.1697 62.3948 17.6883C62.3968 18.2788 62.2118 18.8548 61.8661 19.3335C61.5204 19.8122 61.0318 20.1691 60.4707 20.353C59.8918 20.5939 59.2547 20.6592 58.639 20.5408C58.0232 20.4223 57.4557 20.1254 57.0075 19.6868C55.1995 17.9739 55.2268 14.1864 57.0559 12.5924C57.5278 12.1611 58.1165 11.8785 58.7482 11.7798C59.3798 11.6812 60.0268 11.7708 60.6077 12.0376C61.1855 12.2533 61.6757 12.6537 62.0027 13.1766C62.3296 13.6995 62.4748 14.3157 62.4157 14.9296C62.4005 15.3274 62.4097 15.7252 62.4097 16.123Z" fill="#101419"/>
<path d="M97.3972 13.0624C97.0777 11.938 96.4397 10.93 95.5604 10.1597C94.6811 9.38944 93.5979 8.88988 92.4411 8.72116C91.549 8.54541 90.6264 8.60772 89.7661 8.90192C88.9057 9.19611 88.1381 9.71177 87.5404 10.397C87.5263 10.2034 87.5263 10.0091 87.5404 9.8155C87.6565 9.18457 87.3978 8.99901 86.7792 9.05421C86.1335 9.10552 85.4846 9.10552 84.8388 9.05421C84.3268 9.019 84.1725 9.15602 84.1725 9.69654C84.1928 16.0192 84.1928 22.3418 84.1725 28.6644C84.1725 29.1668 84.2678 29.3791 84.8188 29.3401C85.5154 29.279 86.2156 29.279 86.9121 29.3401C87.6087 29.4133 87.7176 29.1392 87.7072 28.5159C87.6682 26.3643 87.6918 24.2117 87.6918 22.0277C87.806 22.0734 87.8622 22.0782 87.887 22.1086C89.7807 24.4554 94.2074 24.1784 96.2477 21.4006C97.1338 20.2239 97.7048 18.8402 97.906 17.3809C98.1072 15.9216 97.9319 14.4351 97.3972 13.0624V13.0624ZM93.0568 19.7334C92.5902 20.1714 92.0034 20.4598 91.3715 20.5616C90.7396 20.6633 90.092 20.5738 89.5114 20.3044C88.9596 20.0962 88.4877 19.7189 88.163 19.2266C87.8383 18.7342 87.6771 18.1519 87.703 17.5627C87.6897 17.0869 87.703 16.6187 87.703 16.1458C87.703 15.748 87.703 15.3502 87.703 14.9524C87.653 14.3021 87.8209 13.6537 88.1802 13.1094C88.5395 12.5651 89.0695 12.1558 89.6871 11.9462C90.3262 11.7302 91.0143 11.7041 91.6679 11.8712C92.3216 12.0382 92.9129 12.3912 93.37 12.8874C94.8907 14.607 94.7507 18.1917 93.0568 19.7324V19.7334Z" fill="#101419"/>
</svg>
