<svg width="17" height="17" viewBox="0 0 17 17" fill="none" xmlns="http://www.w3.org/2000/svg">
<path d="M15.1191 16C15.3533 16 15.5779 15.907 15.7435 15.7414C15.909 15.5758 16.0021 15.3512 16.0021 15.117V0.883C16.0021 0.648814 15.909 0.424219 15.7435 0.258625C15.5779 0.0930301 15.3533 0 15.1191 0L0.885075 0C0.650889 0 0.426295 0.0930301 0.2607 0.258625C0.0951053 0.424219 0.0020752 0.648814 0.0020752 0.883L0.0020752 15.117C0.0020752 15.3512 0.0951053 15.5758 0.2607 15.7414C0.426295 15.907 0.650889 16 0.885075 16H15.1191Z" fill="#485A96"/>
<path d="M11.042 15.9999V9.80692H13.122L13.433 7.39192H11.042V5.84792C11.042 5.14792 11.236 4.67192 12.242 4.67192H13.521V2.51192C12.9023 2.44473 12.2804 2.41135 11.658 2.41192C11.2348 2.38123 10.81 2.44347 10.4134 2.59427C10.0168 2.74507 9.65793 2.98079 9.36201 3.2849C9.06609 3.58901 8.84026 3.95416 8.70034 4.35476C8.56042 4.75535 8.50981 5.1817 8.55204 5.60392V7.38492H6.46704V9.80692H8.55204V16.0069H11.046L11.042 15.9999Z" fill="white"/>
</svg>
