<svg width="16" height="16" viewBox="0 0 16 16" fill="none" xmlns="http://www.w3.org/2000/svg">
<path d="M7.99902 16C12.4173 16 15.999 12.4183 15.999 8C15.999 3.58172 12.4173 0 7.99902 0C3.58075 0 -0.000976562 3.58172 -0.000976562 8C-0.000976562 12.4183 3.58075 16 7.99902 16Z" fill="#2DAAE1"/>
<path d="M13.097 4.83402C12.7157 5.00301 12.3112 5.11391 11.897 5.16302C12.3338 4.90159 12.6607 4.49044 12.817 4.00602C12.4066 4.24997 11.9574 4.42178 11.489 4.51401C11.2021 4.20803 10.8298 3.99537 10.4204 3.90365C10.0111 3.81193 9.58365 3.84539 9.19357 3.99967C8.8035 4.15396 8.4688 4.42193 8.23296 4.76884C7.99711 5.11574 7.871 5.52553 7.871 5.94501C7.87085 6.10555 7.88897 6.26558 7.925 6.42202C7.09341 6.38036 6.27987 6.1643 5.53719 5.78788C4.7945 5.41145 4.13926 4.88307 3.614 4.23702C3.34671 4.69745 3.26484 5.24239 3.38503 5.76104C3.50521 6.27968 3.81844 6.73308 4.261 7.02901C3.92904 7.01879 3.60433 6.9293 3.314 6.76801V6.79401C3.31391 7.27704 3.48099 7.74523 3.78685 8.11909C4.09271 8.49294 4.51853 8.74943 4.992 8.84502C4.81243 8.89389 4.62711 8.91844 4.44101 8.91802C4.30881 8.91798 4.17689 8.90559 4.047 8.88102C4.18074 9.2965 4.44098 9.65981 4.79132 9.92014C5.14166 10.1805 5.5646 10.3248 6.00101 10.333C5.12312 11.0208 4.00824 11.3322 2.901 11.199C3.79996 11.775 4.83738 12.0985 5.90442 12.1354C6.97145 12.1723 8.02876 11.9213 8.96536 11.4087C9.90197 10.8962 10.6833 10.141 11.2275 9.22242C11.7716 8.30382 12.0585 7.2557 12.058 6.18803C12.058 6.09736 12.056 6.00701 12.052 5.91701C12.4618 5.62086 12.8157 5.25415 13.097 4.83402Z" fill="white"/>
</svg>
