<svg width="135" height="36" viewBox="0 0 135 36" fill="none" xmlns="http://www.w3.org/2000/svg">
<path d="M78.4058 10.0665L86.1178 7.19951L78.4058 4.16551V0.145508L91.6059 5.47351V8.75351L78.4058 14.0865V10.0665ZM5.50485 35.4895C2.71785 35.4895 0.417847 34.0955 0.417847 30.9815V30.8155C0.417847 27.0425 3.69785 25.7285 7.71785 25.7285H9.60485V24.9885C9.60485 23.4285 8.95085 22.5285 7.31085 22.5285C7.02852 22.493 6.74188 22.5169 6.46936 22.5988C6.19684 22.6806 5.94448 22.8187 5.7285 23.0039C5.51253 23.1892 5.33772 23.4176 5.21533 23.6745C5.09293 23.9314 5.02566 24.2111 5.01785 24.4955H0.910847C1.23785 21.0455 3.94485 19.4095 7.55185 19.4095C11.2398 19.4095 13.9458 20.9695 13.9458 24.8235V35.1575H9.76585V33.3505C9.28719 34.0309 8.64762 34.5823 7.90415 34.9555C7.16068 35.3287 6.33642 35.5122 5.50485 35.4895ZM9.60485 29.9955V28.5215H7.88485C5.75185 28.5215 4.68485 29.0955 4.68485 30.4885V30.6545C4.68485 31.7215 5.33885 32.4605 6.81785 32.4605C7.1665 32.5008 7.51973 32.4672 7.85456 32.362C8.18938 32.2568 8.49829 32.0822 8.76119 31.8497C9.02409 31.6172 9.23508 31.3319 9.38044 31.0124C9.52579 30.693 9.60225 30.3465 9.60485 29.9955ZM23.7048 35.4895C19.4378 35.4895 16.3238 32.8635 16.3238 27.6155V27.3745C16.3238 22.1215 19.6038 19.3345 23.7048 19.3345C27.2318 19.3345 30.0988 21.1405 30.4318 25.1555H26.3318C26.0848 23.6815 25.2648 22.6955 23.7908 22.6955C21.9848 22.6955 20.6768 24.1695 20.6768 27.2035V27.6965C20.6768 30.8105 21.8238 32.2045 23.7908 32.2045C24.5236 32.1843 25.2209 31.8842 25.7392 31.3659C26.2576 30.8475 26.5577 30.1503 26.5778 29.4175H30.5178C30.2678 32.9455 27.8878 35.4895 23.7068 35.4895H23.7048ZM39.7798 35.4895C35.5128 35.4895 32.3988 32.8635 32.3988 27.6155V27.3745C32.3988 22.1275 35.6788 19.3395 39.7798 19.3395C43.3068 19.3395 46.1738 21.1455 46.5068 25.1605H42.4068C42.1598 23.6865 41.3398 22.7005 39.8658 22.7005C38.0598 22.7005 36.7518 24.1745 36.7518 27.2085V27.7015C36.7518 30.8155 37.8988 32.2095 39.8658 32.2095C40.5986 32.1893 41.2959 31.8892 41.8142 31.3709C42.3326 30.8525 42.6327 30.1553 42.6528 29.4225H46.5868C46.3418 32.9455 43.9628 35.4895 39.7818 35.4895H39.7798ZM55.9348 35.4895C51.5078 35.4895 48.4738 32.8635 48.4738 27.7015V27.3745C48.4738 22.2075 51.6738 19.3395 55.8548 19.3395C59.7088 19.3395 62.9088 21.4725 62.9088 26.6395V28.5265H52.9028C53.0688 31.3135 54.2968 32.3805 56.1028 32.3805C56.7337 32.4299 57.3625 32.2616 57.8843 31.9037C58.4062 31.5457 58.7897 31.0198 58.9708 30.4135H62.9908C62.4168 33.2755 60.0378 35.4895 55.9368 35.4895H55.9348ZM52.9028 25.6455H58.7238C58.6438 23.3515 57.5768 22.3655 55.8558 22.3655C54.4628 22.4535 53.2298 23.1885 52.9028 25.6455ZM65.5308 19.7455H69.8778V22.0455C70.3216 21.2044 70.9986 20.5093 71.8277 20.0435C72.6568 19.5777 73.6027 19.361 74.5518 19.4195C77.3389 19.4195 79.2258 21.1405 79.2258 24.8335V35.1625H74.8788V25.4875C74.8788 23.6815 74.1388 22.8615 72.5848 22.8615C72.2101 22.8415 71.8355 22.9033 71.487 23.0426C71.1386 23.182 70.8246 23.3956 70.567 23.6685C70.3094 23.9414 70.1143 24.2671 69.9953 24.6231C69.8763 24.979 69.8362 25.3565 69.8778 25.7295V35.1575H65.5308V19.7455ZM87.1798 15.0715V19.7455H90.1328V22.9455H87.1798V30.2455C87.1798 31.3925 87.6728 31.9665 88.7398 31.9665C89.243 31.9871 89.7449 31.903 90.2138 31.7195V35.0805C89.4147 35.3113 88.5855 35.4215 87.7538 35.4075C84.3928 35.4075 82.8338 33.8475 82.8338 30.7335V22.9455H81.0338V19.7455H82.8398V16.8745L87.1798 15.0715ZM106.369 35.1605H102.018V32.8685C101.603 33.6954 100.957 34.3839 100.158 34.8502C99.3591 35.3164 98.4418 35.5403 97.5178 35.4945C94.7308 35.4945 92.6778 33.7735 92.6778 30.1665V19.7455H97.0178V29.5865C97.0178 31.3925 97.7579 32.2125 99.2318 32.2125C99.6046 32.225 99.9758 32.158 100.321 32.0161C100.666 31.8741 100.976 31.6604 101.232 31.3892C101.488 31.118 101.684 30.7954 101.806 30.4429C101.927 30.0903 101.973 29.7159 101.939 29.3445V19.8275H106.286V35.1625L106.369 35.1605ZM109.569 19.7455H113.918V22.6135C114.264 21.6702 114.906 20.8646 115.749 20.3176C116.592 19.7705 117.589 19.5116 118.592 19.5795V23.8455C115.639 23.8455 113.918 24.7455 113.918 27.2915V35.2455H109.571L109.569 19.7455ZM127.369 35.4875C122.942 35.4875 119.908 32.8615 119.908 27.6995V27.3725C119.908 22.2055 123.108 19.3375 127.289 19.3375C131.143 19.3375 134.343 21.4705 134.343 26.6375V28.5245H124.33C124.496 31.3115 125.724 32.3785 127.53 32.3785C128.161 32.4279 128.789 32.2596 129.311 31.9017C129.833 31.5437 130.217 31.0178 130.398 30.4115H134.418C133.764 33.2735 131.384 35.4875 127.364 35.4875H127.369ZM124.25 25.6455H130.071C129.991 23.3515 128.924 22.3655 127.203 22.3655C125.89 22.4535 124.657 23.1885 124.25 25.6455Z" fill="#8989A2"/>
</svg>
