<svg width="302" height="157" viewBox="0 0 302 157" fill="none" xmlns="http://www.w3.org/2000/svg">
<path d="M80.4058 14.0665L88.1178 11.1995L80.4058 8.16551V4.14551L93.6059 9.47351V12.7535L80.4058 18.0865V14.0665ZM7.50485 39.4895C4.71785 39.4895 2.41785 38.0955 2.41785 34.9815V34.8155C2.41785 31.0425 5.69785 29.7285 9.71785 29.7285H11.6048V28.9885C11.6048 27.4285 10.9508 26.5285 9.31085 26.5285C9.02852 26.493 8.74188 26.5169 8.46936 26.5988C8.19684 26.6806 7.94448 26.8187 7.7285 27.0039C7.51253 27.1892 7.33772 27.4176 7.21533 27.6745C7.09293 27.9314 7.02566 28.2111 7.01785 28.4955H2.91085C3.23785 25.0455 5.94485 23.4095 9.55185 23.4095C13.2398 23.4095 15.9458 24.9695 15.9458 28.8235V39.1575H11.7658V37.3505C11.2872 38.0309 10.6476 38.5823 9.90415 38.9555C9.16068 39.3287 8.33642 39.5122 7.50485 39.4895ZM11.6048 33.9955V32.5215H9.88485C7.75185 32.5215 6.68485 33.0955 6.68485 34.4885V34.6545C6.68485 35.7215 7.33885 36.4605 8.81785 36.4605C9.1665 36.5008 9.51973 36.4672 9.85456 36.362C10.1894 36.2568 10.4983 36.0822 10.7612 35.8497C11.0241 35.6172 11.2351 35.3319 11.3804 35.0124C11.5258 34.693 11.6023 34.3465 11.6048 33.9955V33.9955ZM25.7048 39.4895C21.4378 39.4895 18.3238 36.8635 18.3238 31.6155V31.3745C18.3238 26.1215 21.6038 23.3345 25.7048 23.3345C29.2318 23.3345 32.0988 25.1405 32.4318 29.1555H28.3318C28.0848 27.6815 27.2648 26.6955 25.7908 26.6955C23.9848 26.6955 22.6768 28.1695 22.6768 31.2035V31.6965C22.6768 34.8105 23.8238 36.2045 25.7908 36.2045C26.5236 36.1843 27.2209 35.8842 27.7392 35.3659C28.2576 34.8475 28.5577 34.1503 28.5778 33.4175H32.5178C32.2678 36.9455 29.8878 39.4895 25.7068 39.4895H25.7048ZM41.7798 39.4895C37.5128 39.4895 34.3988 36.8635 34.3988 31.6155V31.3745C34.3988 26.1275 37.6788 23.3395 41.7798 23.3395C45.3068 23.3395 48.1738 25.1455 48.5068 29.1605H44.4068C44.1598 27.6865 43.3398 26.7005 41.8658 26.7005C40.0598 26.7005 38.7518 28.1745 38.7518 31.2085V31.7015C38.7518 34.8155 39.8988 36.2095 41.8658 36.2095C42.5986 36.1893 43.2959 35.8892 43.8142 35.3709C44.3326 34.8525 44.6327 34.1553 44.6528 33.4225H48.5868C48.3418 36.9455 45.9628 39.4895 41.7818 39.4895H41.7798ZM57.9348 39.4895C53.5078 39.4895 50.4738 36.8635 50.4738 31.7015V31.3745C50.4738 26.2075 53.6738 23.3395 57.8548 23.3395C61.7088 23.3395 64.9088 25.4725 64.9088 30.6395V32.5265H54.9028C55.0688 35.3135 56.2968 36.3805 58.1028 36.3805C58.7337 36.4299 59.3625 36.2616 59.8843 35.9037C60.4062 35.5457 60.7897 35.0198 60.9708 34.4135H64.9908C64.4168 37.2755 62.0378 39.4895 57.9368 39.4895H57.9348ZM54.9028 29.6455H60.7238C60.6438 27.3515 59.5768 26.3655 57.8558 26.3655C56.4628 26.4535 55.2298 27.1885 54.9028 29.6455ZM67.5308 23.7455H71.8778V26.0455C72.3216 25.2044 72.9986 24.5093 73.8277 24.0435C74.6568 23.5777 75.6027 23.361 76.5518 23.4195C79.3388 23.4195 81.2258 25.1405 81.2258 28.8335V39.1625H76.8788V29.4875C76.8788 27.6815 76.1388 26.8615 74.5848 26.8615C74.2101 26.8415 73.8355 26.9033 73.487 27.0426C73.1386 27.182 72.8246 27.3956 72.567 27.6685C72.3094 27.9414 72.1143 28.2671 71.9953 28.6231C71.8763 28.979 71.8362 29.3565 71.8778 29.7295V39.1575H67.5308V23.7455ZM89.1798 19.0715V23.7455H92.1328V26.9455H89.1798V34.2455C89.1798 35.3925 89.6728 35.9665 90.7398 35.9665C91.243 35.9871 91.7449 35.903 92.2138 35.7195V39.0805C91.4147 39.3113 90.5855 39.4215 89.7538 39.4075C86.3928 39.4075 84.8338 37.8475 84.8338 34.7335V26.9455H83.0338V23.7455H84.8398V20.8745L89.1798 19.0715ZM108.369 39.1605H104.018V36.8685C103.603 37.6954 102.957 38.3839 102.158 38.8502C101.359 39.3164 100.442 39.5403 99.5178 39.4945C96.7308 39.4945 94.6778 37.7735 94.6778 34.1665V23.7455H99.0178V33.5865C99.0178 35.3925 99.7578 36.2125 101.232 36.2125C101.605 36.225 101.976 36.158 102.321 36.0161C102.666 35.8741 102.976 35.6604 103.232 35.3892C103.488 35.118 103.684 34.7954 103.806 34.4429C103.927 34.0903 103.973 33.7159 103.939 33.3445V23.8275H108.286V39.1625L108.369 39.1605ZM111.569 23.7455H115.918V26.6135C116.264 25.6702 116.906 24.8646 117.749 24.3176C118.592 23.7705 119.589 23.5116 120.592 23.5795V27.8455C117.639 27.8455 115.918 28.7455 115.918 31.2915V39.2455H111.571L111.569 23.7455ZM129.369 39.4875C124.942 39.4875 121.908 36.8615 121.908 31.6995V31.3725C121.908 26.2055 125.108 23.3375 129.289 23.3375C133.143 23.3375 136.343 25.4705 136.343 30.6375V32.5245H126.33C126.496 35.3115 127.724 36.3785 129.53 36.3785C130.161 36.4279 130.789 36.2596 131.311 35.9017C131.833 35.5437 132.217 35.0178 132.398 34.4115H136.418C135.764 37.2735 133.384 39.4875 129.364 39.4875H129.369ZM126.25 29.6455H132.071C131.991 27.3515 130.924 26.3655 129.203 26.3655C127.89 26.4535 126.657 27.1885 126.25 29.6455Z" fill="#8989A2"/>
<path d="M290.643 18.2936C289.967 18.0622 289.287 17.8479 288.601 17.6506C288.715 17.1886 288.82 16.7242 288.917 16.2576C290.463 8.75756 289.452 2.70856 286.001 0.718565C282.692 -1.19044 277.28 0.799564 271.814 5.55656C271.275 6.02323 270.749 6.50623 270.235 7.00557C269.89 6.67223 269.54 6.34856 269.184 6.03456C263.455 0.947565 257.713 -1.19544 254.265 0.800565C250.959 2.71456 249.98 8.40057 251.371 15.5086C251.509 16.2126 251.666 16.9126 251.84 17.6086C251.028 17.8396 250.24 18.0856 249.492 18.3466C242.776 20.6876 238.487 24.3576 238.487 28.1646C238.487 32.0966 243.087 36.0396 250.087 38.4306C250.654 38.6232 251.226 38.8019 251.802 38.9666C251.614 39.7166 251.448 40.4716 251.302 41.2316C249.975 48.2196 251.011 53.7676 254.309 55.6696C257.715 57.6336 263.431 55.6146 268.997 50.7496C269.437 50.3649 269.878 49.9582 270.321 49.5296C270.877 50.0669 271.449 50.5886 272.036 51.0946C277.427 55.7336 282.752 57.6076 286.047 55.7006C289.447 53.7306 290.555 47.7706 289.119 40.5186C289.009 39.9646 288.883 39.3979 288.739 38.8186C289.139 38.6999 289.532 38.5772 289.919 38.4506C297.191 36.0416 301.919 32.1506 301.919 28.1616C301.919 24.3416 297.492 20.6466 290.64 18.2886L290.643 18.2936Z" fill="#8989A2"/>
<path d="M289.065 35.8826C288.718 35.9976 288.365 36.1086 288 36.2156C287.113 33.4671 286.04 30.7822 284.788 28.1796C285.992 25.6111 287.024 22.9648 287.875 20.2586C288.524 20.4466 289.154 20.6446 289.761 20.8586C295.631 22.8796 299.212 25.8676 299.212 28.1696C299.212 30.6216 295.345 33.8056 289.066 35.8866L289.065 35.8826ZM286.46 41.0456C287.073 43.7942 287.174 46.6321 286.76 49.4176C286.382 51.4546 285.622 52.8116 284.683 53.3556C282.683 54.5126 278.408 53.0086 273.798 49.0416C273.269 48.5869 272.736 48.1022 272.198 47.5876C274.12 45.4592 275.897 43.2034 277.515 40.8356C280.406 40.5918 283.277 40.1494 286.107 39.5116C286.236 40.0336 286.35 40.5452 286.45 41.0466L286.46 41.0456ZM260.112 53.1586C258.159 53.8486 256.603 53.8676 255.663 53.3256C253.663 52.1716 252.83 47.7166 253.963 41.7406C254.096 41.0346 254.25 40.3326 254.426 39.6346C257.244 40.2401 260.1 40.6537 262.975 40.8726C264.641 43.232 266.459 45.4796 268.42 47.6006C268.026 47.9812 267.623 48.3522 267.211 48.7136C265.137 50.6186 262.73 52.1257 260.111 53.1596L260.112 53.1586ZM250.962 35.8706C248.275 35.0256 245.767 33.6934 243.562 31.9406C241.99 30.5896 241.2 29.2516 241.2 28.1656C241.2 25.8556 244.644 22.9096 250.388 20.9066C251.108 20.6566 251.836 20.4276 252.571 20.2196C253.424 22.9555 254.457 25.632 255.663 28.2316C254.442 30.8684 253.396 33.5829 252.533 36.3576C252.003 36.2069 251.48 36.0436 250.962 35.8676V35.8706ZM254.029 14.9886C252.837 8.89556 253.629 4.29956 255.621 3.14656C257.743 1.91756 262.436 3.66956 267.382 8.06156C267.698 8.34256 268.016 8.63656 268.334 8.94056C266.388 11.0479 264.584 13.2818 262.934 15.6276C260.087 15.8831 257.259 16.3226 254.469 16.9436C254.307 16.2956 254.161 15.6439 254.033 14.9886H254.029ZM281.392 21.7456C280.772 20.6742 280.129 19.6169 279.463 18.5736C281.487 18.8286 283.426 19.1736 285.247 19.5846C284.662 21.4382 283.985 23.2612 283.217 25.0466C282.631 23.9339 282.022 22.8339 281.392 21.7466V21.7456ZM270.234 10.8766C271.553 12.3151 272.799 13.8193 273.967 15.3836C271.469 15.2656 268.969 15.2656 266.467 15.3836C267.699 13.7586 268.962 12.2486 270.232 10.8836L270.234 10.8766ZM259 21.7636C258.378 22.8429 257.781 23.9362 257.209 25.0436C256.423 23.1726 255.748 21.3326 255.2 19.5586C257.01 19.1536 258.94 18.8226 260.951 18.5716C260.277 19.6216 259.629 20.6882 259.006 21.7716L259 21.7636ZM261 37.9576C259.036 37.7445 257.085 37.4307 255.154 37.0176C255.714 35.2086 256.404 33.3296 257.21 31.4176C257.784 32.5256 258.384 33.6196 259.01 34.6996C259.648 35.8009 260.312 36.8869 261.002 37.9576H261ZM270.3 45.6466C269.016 44.2606 267.735 42.7276 266.483 41.0786C267.697 41.1266 268.934 41.1506 270.194 41.1506C271.487 41.1506 272.763 41.1222 274.023 41.0656C272.864 42.6553 271.624 44.1846 270.309 45.6476L270.3 45.6466ZM283.243 31.3206C284.049 33.1424 284.76 35.005 285.373 36.9006C283.419 37.3397 281.444 37.6765 279.455 37.9096C280.125 36.8469 280.775 35.7709 281.403 34.6816C282.041 33.5749 282.654 32.4546 283.243 31.3206ZM279.056 33.3276C278.095 34.9942 277.081 36.6309 276.013 38.2376C274.131 38.3716 272.186 38.4376 270.204 38.4376C268.222 38.4376 266.31 38.3766 264.461 38.2566C263.365 36.6566 262.332 35.0172 261.361 33.3386C260.394 31.6719 259.492 29.9682 258.655 28.2276C259.489 26.4896 260.389 24.7849 261.355 23.1136C262.317 21.4429 263.343 19.8096 264.431 18.2136C266.318 18.0706 268.252 17.9966 270.207 17.9966C272.162 17.9966 274.107 18.0716 275.994 18.2156C277.07 19.8056 278.088 21.4322 279.05 23.0956C280.011 24.7589 280.923 26.4556 281.785 28.1856C280.937 29.9289 280.029 31.6406 279.059 33.3206L279.056 33.3276ZM284.646 3.06556C286.77 4.29056 287.596 9.23056 286.262 15.7096C286.174 16.1316 286.079 16.5519 285.977 16.9706C283.182 16.3372 280.349 15.8895 277.495 15.6306C275.86 13.2819 274.069 11.0462 272.133 8.93856C272.608 8.48056 273.094 8.03456 273.592 7.60056C278.275 3.52456 282.652 1.91556 284.647 3.06556H284.646Z" fill="white"/>
<path d="M270.204 22.5015C271.324 22.5015 272.42 22.8337 273.351 23.4562C274.283 24.0787 275.009 24.9634 275.438 25.9986C275.866 27.0337 275.979 28.1727 275.76 29.2717C275.541 30.3706 275.002 31.38 274.21 32.1722C273.417 32.9645 272.408 33.504 271.309 33.7226C270.21 33.9412 269.071 33.829 268.036 33.4002C267.001 32.9715 266.116 32.2454 265.494 31.3138C264.871 30.3822 264.539 29.2869 264.539 28.1665C264.539 26.664 265.136 25.2231 266.198 24.1607C267.26 23.0983 268.701 22.5015 270.204 22.5015" fill="#8989A2"/>
<path d="M68.7308 125.447C68.731 125.971 68.5758 126.484 68.2849 126.919C67.9939 127.355 67.5803 127.695 67.0962 127.896C66.6122 128.096 66.0795 128.149 65.5656 128.047C65.0517 127.945 64.5796 127.692 64.209 127.322C63.8385 126.952 63.5861 126.479 63.4838 125.966C63.3815 125.452 63.4339 124.919 63.6344 124.435C63.8348 123.951 64.1744 123.537 64.61 123.246C65.0456 122.955 65.5578 122.799 66.0818 122.799C66.4298 122.799 66.7746 122.867 67.0962 122.999C67.4179 123.132 67.7102 123.327 67.9563 123.573C68.2025 123.819 68.3976 124.111 68.5305 124.433C68.6634 124.755 68.7315 125.099 68.7308 125.447V125.447ZM57.8108 130.785V131.437C57.3098 130.895 56.6969 130.468 56.0145 130.187C55.332 129.905 54.5964 129.775 53.8588 129.806C51.7461 129.847 49.7337 130.715 48.254 132.224C46.7743 133.732 45.9454 135.761 45.9454 137.874C45.9454 139.987 46.7743 142.016 48.254 143.524C49.7337 145.033 51.7461 145.901 53.8588 145.941C54.6007 145.977 55.3413 145.846 56.0254 145.557C56.7096 145.267 57.3198 144.828 57.8108 144.27V144.962C57.809 145.038 57.8226 145.113 57.8507 145.183C57.8787 145.253 57.9207 145.317 57.9741 145.37C58.0275 145.423 58.0912 145.465 58.1613 145.493C58.2313 145.521 58.3064 145.534 58.3818 145.532H61.6818V130.212H58.3818C58.2314 130.216 58.0882 130.278 57.9819 130.384C57.8756 130.491 57.8144 130.634 57.8108 130.784V130.785ZM57.8108 140.604C57.4331 141.125 56.9368 141.548 56.3629 141.839C55.789 142.13 55.1541 142.279 54.5108 142.275C53.9154 142.304 53.3203 142.211 52.7618 142.003C52.2032 141.794 51.6927 141.475 51.2613 141.064C50.8298 140.652 50.4863 140.158 50.2517 139.61C50.017 139.062 49.896 138.472 49.896 137.875C49.896 137.279 50.017 136.689 50.2517 136.141C50.4863 135.593 50.8298 135.099 51.2613 134.687C51.6927 134.276 52.2032 133.956 52.7618 133.748C53.3203 133.54 53.9154 133.447 54.5108 133.475C55.1525 133.48 55.7843 133.634 56.3568 133.924C56.9293 134.214 57.4269 134.632 57.8108 135.146V140.604ZM64.1268 130.214H68.0378V145.534H64.1268V130.213V130.214ZM122.555 129.806C121.817 129.775 121.081 129.905 120.399 130.187C119.716 130.468 119.103 130.895 118.602 131.437V122.837H114.691V145.532H117.991C118.141 145.529 118.285 145.468 118.391 145.362C118.497 145.255 118.558 145.112 118.561 144.961V144.269C119.056 144.821 119.667 145.257 120.35 145.546C121.033 145.835 121.772 145.969 122.513 145.94C124.622 145.899 126.631 145.034 128.11 143.53C129.589 142.026 130.42 140.002 130.425 137.893C130.431 135.784 129.61 133.756 128.139 132.244C126.668 130.732 124.664 129.857 122.555 129.804V129.806ZM121.903 142.234C121.259 142.243 120.622 142.096 120.047 141.805C119.473 141.514 118.977 141.088 118.603 140.563V135.103C119 134.603 119.5 134.195 120.07 133.906C120.639 133.618 121.265 133.456 121.903 133.432C123.07 133.432 124.189 133.896 125.014 134.721C125.839 135.546 126.303 136.665 126.303 137.832C126.303 138.999 125.839 140.119 125.014 140.944C124.189 141.769 123.07 142.232 121.903 142.232V142.234ZM112.654 136.449V145.576H108.742V136.897C108.742 134.371 107.927 133.352 105.728 133.352C105.122 133.37 104.527 133.514 103.98 133.773C103.433 134.033 102.946 134.403 102.549 134.86V145.535H98.6388V130.214H101.739C101.889 130.218 102.033 130.279 102.139 130.385C102.246 130.491 102.307 130.635 102.31 130.785V131.437C102.854 130.896 103.504 130.472 104.218 130.191C104.933 129.911 105.697 129.78 106.465 129.806C108.023 129.753 109.546 130.275 110.744 131.273C112.129 132.414 112.659 133.88 112.659 136.448L112.654 136.449ZM89.1428 129.807C88.4052 129.776 87.6697 129.906 86.9873 130.188C86.3048 130.47 85.6919 130.896 85.1908 131.438V122.838H81.2798V145.533H84.5798C84.7303 145.53 84.8738 145.469 84.9802 145.363C85.0866 145.256 85.1477 145.113 85.1508 144.962V144.27C85.6463 144.822 86.2573 145.258 86.9404 145.547C87.6234 145.836 88.3617 145.97 89.1028 145.941C91.2118 145.9 93.2208 145.035 94.6996 143.531C96.1784 142.026 97.0095 140.003 97.0148 137.893C97.0202 135.784 96.1994 133.756 94.7283 132.245C93.2571 130.733 91.2526 129.857 89.1438 129.805L89.1428 129.807ZM88.4908 142.235C87.8467 142.244 87.2101 142.097 86.6354 141.806C86.0607 141.515 85.565 141.089 85.1908 140.564V135.104C85.5876 134.604 86.088 134.196 86.6577 133.907C87.2274 133.619 87.8527 133.457 88.4908 133.433C89.0863 133.405 89.6813 133.498 90.2399 133.706C90.7984 133.914 91.3089 134.234 91.7403 134.645C92.1718 135.057 92.5153 135.551 92.75 136.099C92.9846 136.647 93.1056 137.237 93.1056 137.833C93.1056 138.43 92.9846 139.02 92.75 139.568C92.5153 140.116 92.1718 140.61 91.7403 141.022C91.3089 141.433 90.7984 141.752 90.2399 141.961C89.6813 142.169 89.0863 142.262 88.4908 142.233V142.235ZM77.8978 129.807C78.502 129.787 79.106 129.854 79.6908 130.007V133.633C79.6908 133.633 76.4308 132.533 74.3908 134.856V145.572H70.4788V130.213H73.7788C73.9292 130.217 74.0726 130.278 74.1788 130.384C74.2851 130.491 74.346 130.634 74.3488 130.784V131.436C75.2844 130.466 76.5518 129.884 77.8978 129.806V129.807ZM37.2758 144.15C37.0758 143.661 36.8688 143.132 36.6648 142.683C36.3388 141.95 36.0128 141.257 35.7278 140.605L35.6868 140.564C32.8748 134.452 29.8608 128.264 26.6868 122.148L26.5648 121.903C26.2315 121.269 25.9058 120.631 25.5878 119.988C25.186 119.188 24.6938 118.436 24.1208 117.747C23.5057 116.961 22.7197 116.325 21.8225 115.887C20.9252 115.45 19.9401 115.222 18.9418 115.221C17.947 115.225 16.965 115.446 16.0643 115.868C15.1636 116.29 14.3659 116.904 13.7268 117.666C13.1672 118.365 12.6759 119.115 12.2598 119.907C11.9418 120.549 11.6162 121.188 11.2828 121.822L11.1598 122.067C8.02281 128.178 4.96681 134.367 2.15981 140.483L2.11882 140.564C1.83382 141.217 1.50781 141.909 1.18181 142.642C0.978477 143.091 0.774818 143.58 0.570818 144.109C0.0497934 145.514 -0.118144 147.025 0.0818041 148.509C0.3002 150.001 0.904011 151.409 1.83354 152.595C2.76308 153.782 3.98616 154.705 5.38182 155.273C6.42631 155.712 7.549 155.934 8.68181 155.925C9.03643 155.919 9.39035 155.891 9.74181 155.843C11.1795 155.661 12.5656 155.19 13.8168 154.458C15.7142 153.325 17.4172 151.895 18.8608 150.221C20.3159 151.886 22.0202 153.315 23.9128 154.458C25.1638 155.19 26.5494 155.661 27.9868 155.843C28.3382 155.891 28.6922 155.919 29.0468 155.925C30.18 155.938 31.3035 155.716 32.3468 155.273C33.7433 154.706 34.9672 153.783 35.8969 152.597C36.8266 151.41 37.4298 150.001 37.6468 148.509C37.9467 147.051 37.8185 145.537 37.2778 144.15H37.2758ZM18.9008 146.269C16.9969 144.071 15.5929 141.485 14.7858 138.691C14.5871 137.878 14.5457 137.034 14.6638 136.205C14.7438 135.592 14.9672 135.005 15.3158 134.493C15.7246 133.927 16.2642 133.469 16.8886 133.157C17.5131 132.844 18.2038 132.688 18.9018 132.7C19.602 132.674 20.2975 132.825 20.9242 133.138C21.551 133.451 22.0887 133.918 22.4878 134.493C22.8358 135.005 23.0591 135.592 23.1398 136.205C23.2582 137.034 23.2168 137.878 23.0178 138.691C22.1912 141.477 20.7885 144.058 18.9008 146.267V146.269ZM35.1568 148.184C35.0103 149.234 34.5908 150.227 33.9402 151.064C33.2897 151.9 32.431 152.552 31.4498 152.952C30.4686 153.352 29.4009 153.492 28.3498 153.359C27.2546 153.223 26.1993 152.863 25.2498 152.3C23.4991 151.241 21.9306 149.906 20.6048 148.347C22.9054 145.757 24.5907 142.681 25.5348 139.347C25.7989 138.213 25.8666 137.041 25.7348 135.883C25.5841 134.888 25.2078 133.94 24.6348 133.112C23.9862 132.198 23.1235 131.456 22.1221 130.952C21.1206 130.447 20.0108 130.196 18.8898 130.219C17.7703 130.205 16.6637 130.46 15.6637 130.964C14.6637 131.467 13.7997 132.204 13.1448 133.112C12.572 133.94 12.1957 134.888 12.0448 135.883C11.8716 137.04 11.9397 138.219 12.2448 139.347C12.8558 142.036 14.5258 145.092 17.1748 148.392C15.8585 149.961 14.2884 151.297 12.5298 152.345C11.5806 152.908 10.5251 153.269 9.42983 153.404C8.37878 153.522 7.31484 153.383 6.32982 152.997C5.35155 152.593 4.49638 151.939 3.84963 151.101C3.20287 150.263 2.78712 149.27 2.64382 148.221C2.50933 147.148 2.63521 146.058 3.01082 145.043C3.13282 144.635 3.33682 144.228 3.54082 143.743C3.82582 143.091 4.1518 142.398 4.4778 141.705L4.51882 141.624C7.32982 135.553 10.3448 129.36 13.4818 123.33L13.6038 123.085C13.9298 122.474 14.2558 121.822 14.5818 121.211C14.8895 120.571 15.2726 119.969 15.7228 119.418C16.1244 118.946 16.6239 118.566 17.1868 118.306C17.7496 118.046 18.3622 117.911 18.9823 117.911C19.6024 117.911 20.2151 118.046 20.7779 118.306C21.3407 118.566 21.8402 118.946 22.2418 119.418C22.6915 119.969 23.0745 120.571 23.3828 121.211C23.7088 121.822 24.0348 122.474 24.3608 123.085L24.4838 123.33C27.5731 129.385 30.5475 135.497 33.4068 141.665V141.706C33.7328 142.359 34.0178 143.092 34.3438 143.744C34.5438 144.232 34.7508 144.644 34.8738 145.044C35.2096 146.054 35.3068 147.128 35.1578 148.181L35.1568 148.184Z" fill="#8989A2"/>
<path d="M265.904 124.509C265.912 124.408 265.897 124.308 265.861 124.214C265.826 124.12 265.769 124.036 265.697 123.966C265.624 123.897 265.537 123.845 265.442 123.813C265.347 123.782 265.245 123.772 265.146 123.785H262.476C262.23 123.756 261.98 123.783 261.747 123.865C261.513 123.946 261.3 124.08 261.126 124.256C260.951 124.431 260.818 124.644 260.738 124.879C260.658 125.113 260.632 125.363 260.662 125.609V148.478C260.655 148.578 260.67 148.679 260.706 148.773C260.743 148.867 260.8 148.951 260.873 149.021C260.946 149.09 261.033 149.142 261.129 149.174C261.224 149.206 261.326 149.216 261.426 149.204H264.09C264.336 149.232 264.586 149.205 264.82 149.123C265.054 149.041 265.266 148.908 265.441 148.732C265.616 148.556 265.748 148.342 265.828 148.108C265.908 147.873 265.934 147.624 265.904 147.378V124.509ZM296.418 132.223C296.418 131.794 296.101 131.582 295.669 131.582H292.429C292.176 131.553 291.92 131.612 291.706 131.75C291.492 131.887 291.331 132.094 291.252 132.337L286.684 142.475L280.318 132.443C280.147 132.138 279.887 131.893 279.573 131.74C279.259 131.587 278.906 131.532 278.561 131.585H274.711C274.391 131.561 274.069 131.615 273.774 131.74C273.478 131.866 273.217 132.06 273.011 132.307L266.227 139.585L272.306 148.451C272.413 148.672 272.58 148.859 272.788 148.991C272.996 149.123 273.236 149.195 273.482 149.199H277.108C277.651 149.199 277.967 148.981 277.967 148.525C277.945 148.257 277.833 148.006 277.651 147.81L272.307 139.898L276.36 135.532L284.371 147.374L280.835 154.855C280.721 155.054 280.648 155.274 280.619 155.502C280.619 155.935 280.937 156.143 281.37 156.143H284.585C284.838 156.173 285.093 156.114 285.307 155.977C285.522 155.84 285.682 155.633 285.761 155.391L296.206 132.871C296.321 132.672 296.394 132.451 296.418 132.223V132.223ZM248.941 137.678C247.876 137.438 247.541 137.137 247.541 136.6C247.541 136.182 247.872 135.849 248.832 135.849H256.605C256.85 135.879 257.1 135.852 257.334 135.772C257.568 135.692 257.78 135.559 257.955 135.385C258.131 135.21 258.264 134.998 258.345 134.764C258.426 134.53 258.453 134.281 258.424 134.036V132.343C258.436 132.243 258.427 132.142 258.395 132.046C258.364 131.951 258.312 131.863 258.243 131.791C258.174 131.718 258.089 131.661 257.995 131.625C257.902 131.589 257.801 131.574 257.701 131.582H248.601C244.544 131.585 242.418 133.934 242.418 136.925C242.418 139.589 244.054 141.211 247.328 141.939L252.552 143.108C253.614 143.343 253.944 143.648 253.944 144.192C253.944 144.604 253.615 144.937 252.658 144.937H244.558C244.312 144.905 244.062 144.93 243.827 145.01C243.592 145.09 243.379 145.223 243.203 145.397C243.027 145.572 242.893 145.785 242.812 146.019C242.731 146.254 242.704 146.503 242.734 146.75V148.44C242.721 148.539 242.73 148.64 242.761 148.736C242.792 148.831 242.844 148.918 242.913 148.991C242.982 149.064 243.066 149.121 243.159 149.158C243.252 149.195 243.353 149.21 243.453 149.204H252.342C257.142 149.204 259.073 146.854 259.073 144.071C259.073 141.195 257.416 139.571 254.165 138.848L248.941 137.678Z" fill="#8989A2"/>
</svg>
