<svg width="424" height="24" viewBox="0 0 424 24" fill="none" xmlns="http://www.w3.org/2000/svg">
<path d="M172.256 17H173.872V7.512H177.488V6.008H168.656V7.512H172.256V17ZM180.941 10.312V8.728H179.357V17H180.941V12.296C181.085 10.856 182.301 9.912 184.013 9.912V8.536C182.589 8.536 181.469 9.224 180.941 10.312ZM191.254 8.728V14.088C191.126 15.064 190.134 15.816 188.982 15.816C187.862 15.816 187.078 14.952 187.078 13.72V8.728H185.526V13.992C185.526 15.864 186.806 17.192 188.63 17.192C189.75 17.192 190.758 16.616 191.254 15.8V17H192.838V8.728H191.254ZM198.128 17.192C199.936 17.192 201.264 16.2 201.264 14.632C201.264 12.984 199.808 12.536 198.448 12.136C197.056 11.704 196.544 11.512 196.544 10.872C196.544 10.248 197.184 9.896 198 9.896C198.72 9.896 199.552 10.168 200.352 10.664L201.056 9.496C200.16 8.904 199.072 8.536 198 8.536C196.24 8.536 194.976 9.528 194.992 11.048C194.992 12.392 195.936 12.936 197.84 13.464C198.864 13.752 199.712 13.992 199.712 14.76C199.712 15.4 199.072 15.832 198.144 15.832C197.168 15.832 196.224 15.464 195.344 14.824L194.592 15.96C195.584 16.76 196.912 17.192 198.128 17.192ZM206.977 15.512C206.801 15.688 206.481 15.816 206.129 15.816C205.665 15.816 205.281 15.4 205.281 14.824V10.072H207.233V8.728H205.281V6.456H203.729V8.728H202.481V10.072H203.729V14.936C203.729 16.264 204.625 17.192 205.905 17.192C206.497 17.192 207.105 16.968 207.553 16.6L206.977 15.512ZM212.96 15.784C211.536 15.784 210.528 14.792 210.32 13.416H216.832C216.832 10.456 215.376 8.536 212.848 8.536C210.56 8.536 208.72 10.36 208.72 12.84C208.72 15.384 210.672 17.192 212.976 17.192C214.144 17.192 215.584 16.696 216.32 15.912L215.328 14.888C214.832 15.4 213.824 15.784 212.96 15.784ZM212.912 9.944C214.336 9.944 215.12 10.872 215.296 12.152H210.336C210.592 10.808 211.632 9.944 212.912 9.944ZM225.036 5.816V10.152C224.396 9.144 223.372 8.536 222.092 8.536C219.916 8.536 218.284 10.328 218.284 12.856C218.284 15.4 219.916 17.192 222.092 17.192C223.372 17.192 224.396 16.584 225.036 15.56V17H226.604V5.816H225.036ZM222.476 15.816C220.956 15.816 219.884 14.584 219.884 12.856C219.884 11.128 220.956 9.912 222.476 9.912C223.964 9.912 225.036 11.128 225.036 12.856C225.036 14.584 223.964 15.816 222.476 15.816ZM238.15 8.536C236.87 8.536 235.846 9.144 235.206 10.152V5.816H233.638V17H235.206V15.56C235.846 16.584 236.87 17.192 238.15 17.192C240.326 17.192 241.958 15.4 241.958 12.856C241.958 10.328 240.326 8.536 238.15 8.536ZM237.766 15.816C236.278 15.816 235.206 14.584 235.206 12.856C235.206 11.128 236.278 9.912 237.766 9.912C239.286 9.912 240.358 11.128 240.358 12.856C240.358 14.584 239.286 15.816 237.766 15.816ZM245.327 19.88C246.511 19.864 247.391 19.24 247.983 17.752L251.631 8.728H249.983L247.471 15.256L244.815 8.728H243.119L246.671 17.048L246.255 17.928C245.983 18.408 245.631 18.568 245.119 18.568C244.799 18.568 244.431 18.488 244.111 18.312L243.759 19.528C244.191 19.752 244.767 19.88 245.327 19.88Z" fill="#8989A2"/>
<path d="M0 11H144" stroke="#D6D6D6"/>
<path d="M280 11H424" stroke="#D6D6D6"/>
</svg>
